<svg width="208" height="88" viewBox="0 0 208 88" fill="none" xmlns="http://www.w3.org/2000/svg">
<rect x="16" y="24" width="40" height="40" rx="6" fill="url(#paint0_linear_1_2531)"/>
<path d="M68.288 52.824L70.592 50.16C71.96 51.48 73.352 52.476 74.768 53.148C76.208 53.796 77.708 54.12 79.268 54.12C81.068 54.12 82.532 53.724 83.66 52.932C84.812 52.14 85.388 51.132 85.388 49.908C85.388 48.804 84.992 47.952 84.2 47.352C83.408 46.728 82.1 46.26 80.276 45.948L76.064 45.264C73.76 44.88 72.032 44.148 70.88 43.068C69.752 41.964 69.188 40.512 69.188 38.712C69.188 36.528 70.04 34.776 71.744 33.456C73.448 32.136 75.692 31.476 78.476 31.476C80.276 31.476 82.064 31.776 83.84 32.376C85.616 32.952 87.212 33.792 88.628 34.896L86.54 37.776C85.172 36.744 83.804 35.976 82.436 35.472C81.068 34.944 79.688 34.68 78.296 34.68C76.664 34.68 75.344 35.028 74.336 35.724C73.328 36.42 72.824 37.32 72.824 38.424C72.824 39.456 73.172 40.248 73.868 40.8C74.564 41.328 75.716 41.724 77.324 41.988L81.392 42.636C84.032 43.068 85.976 43.86 87.224 45.012C88.496 46.14 89.132 47.676 89.132 49.62C89.132 50.772 88.892 51.828 88.412 52.788C87.932 53.748 87.248 54.564 86.36 55.236C85.496 55.908 84.44 56.436 83.192 56.82C81.944 57.18 80.576 57.36 79.088 57.36C77.072 57.36 75.128 56.964 73.256 56.172C71.384 55.38 69.728 54.264 68.288 52.824ZM92.2021 57V31.8L95.8021 31.008V40.512C96.5221 39.792 97.3381 39.252 98.2501 38.892C99.1861 38.508 100.206 38.316 101.31 38.316C103.398 38.316 105.114 38.988 106.458 40.332C107.802 41.652 108.474 43.368 108.474 45.48V57H104.874V46.092C104.874 44.652 104.454 43.524 103.614 42.708C102.798 41.868 101.706 41.448 100.338 41.448C99.3781 41.448 98.5021 41.652 97.7101 42.06C96.9421 42.468 96.3061 43.056 95.8021 43.824V57H92.2021ZM111.8 47.82C111.8 46.5 112.04 45.264 112.52 44.112C113.024 42.936 113.708 41.928 114.572 41.088C115.436 40.224 116.444 39.552 117.596 39.072C118.772 38.568 120.02 38.316 121.34 38.316C122.66 38.316 123.896 38.568 125.048 39.072C126.224 39.552 127.232 40.224 128.072 41.088C128.936 41.928 129.608 42.936 130.088 44.112C130.592 45.264 130.844 46.5 130.844 47.82C130.844 49.164 130.592 50.424 130.088 51.6C129.608 52.752 128.936 53.76 128.072 54.624C127.232 55.464 126.224 56.136 125.048 56.64C123.896 57.12 122.66 57.36 121.34 57.36C120.02 57.36 118.772 57.12 117.596 56.64C116.444 56.136 115.436 55.464 114.572 54.624C113.708 53.76 113.024 52.752 112.52 51.6C112.04 50.424 111.8 49.164 111.8 47.82ZM121.34 54.192C122.996 54.192 124.4 53.58 125.552 52.356C126.728 51.108 127.316 49.596 127.316 47.82C127.316 46.044 126.728 44.544 125.552 43.32C124.4 42.096 122.996 41.484 121.34 41.484C119.684 41.484 118.268 42.096 117.092 43.32C115.916 44.544 115.328 46.044 115.328 47.82C115.328 49.596 115.904 51.108 117.056 52.356C118.232 53.58 119.66 54.192 121.34 54.192ZM134.249 64.452V38.676H137.813V40.44C138.557 39.768 139.409 39.264 140.369 38.928C141.329 38.568 142.349 38.388 143.429 38.388C144.725 38.388 145.937 38.64 147.065 39.144C148.193 39.624 149.165 40.284 149.981 41.124C150.821 41.964 151.481 42.96 151.961 44.112C152.441 45.264 152.681 46.5 152.681 47.82C152.681 49.14 152.441 50.388 151.961 51.564C151.481 52.716 150.821 53.712 149.981 54.552C149.165 55.392 148.181 56.064 147.029 56.568C145.877 57.048 144.653 57.288 143.357 57.288C142.349 57.288 141.365 57.132 140.405 56.82C139.469 56.508 138.617 56.064 137.849 55.488V64.452H134.249ZM142.961 41.52C141.929 41.52 140.969 41.712 140.081 42.096C139.193 42.48 138.449 43.02 137.849 43.716V51.996C138.425 52.668 139.157 53.196 140.045 53.58C140.957 53.964 141.929 54.156 142.961 54.156C144.713 54.156 146.177 53.556 147.353 52.356C148.553 51.156 149.153 49.656 149.153 47.856C149.153 46.056 148.553 44.556 147.353 43.356C146.153 42.132 144.689 41.52 142.961 41.52ZM156.116 57V31.8L159.716 31.008V46.74L168.608 38.676H172.82L163.388 47.28L173.324 57H168.572L159.716 48.36V57H156.116ZM180.088 57.324C178.096 57.324 176.476 56.808 175.228 55.776C173.98 54.744 173.356 53.4 173.356 51.744C173.356 50.016 174.016 48.66 175.336 47.676C176.656 46.668 178.468 46.164 180.772 46.164C181.66 46.164 182.524 46.26 183.364 46.452C184.204 46.62 185.008 46.86 185.776 47.172V45.228C185.776 43.932 185.392 42.96 184.624 42.312C183.856 41.664 182.752 41.34 181.312 41.34C180.472 41.34 179.596 41.472 178.684 41.736C177.772 41.976 176.752 42.36 175.624 42.888L174.292 40.188C175.66 39.54 176.956 39.072 178.18 38.784C179.404 38.472 180.616 38.316 181.816 38.316C184.192 38.316 186.028 38.892 187.324 40.044C188.644 41.172 189.304 42.78 189.304 44.868V57H185.776V55.416C184.96 56.064 184.084 56.544 183.148 56.856C182.212 57.168 181.192 57.324 180.088 57.324ZM176.812 51.672C176.812 52.56 177.184 53.28 177.928 53.832C178.696 54.384 179.692 54.66 180.916 54.66C181.876 54.66 182.764 54.516 183.58 54.228C184.396 53.94 185.128 53.508 185.776 52.932V49.764C185.08 49.38 184.348 49.104 183.58 48.936C182.812 48.744 181.972 48.648 181.06 48.648C179.764 48.648 178.732 48.924 177.964 49.476C177.196 50.028 176.812 50.76 176.812 51.672Z" fill="#0C2146"/>
<path d="M25.9866 51.448L28.6426 48.12C29.944 49.2507 31.192 50.0827 32.3866 50.616C33.6026 51.128 34.8826 51.384 36.2266 51.384C37.6133 51.384 38.7226 51.128 39.5546 50.616C40.3866 50.104 40.8026 49.4213 40.8026 48.568C40.8026 47.8 40.5146 47.2027 39.9386 46.776C39.384 46.3493 38.4453 46.0293 37.1226 45.816L32.6746 45.048C30.7546 44.728 29.2933 44.056 28.2906 43.032C27.3093 42.008 26.8186 40.6853 26.8186 39.064C26.8186 36.9733 27.608 35.32 29.1866 34.104C30.7866 32.888 32.9413 32.28 35.6506 32.28C37.272 32.28 38.904 32.5573 40.5466 33.112C42.2106 33.6667 43.6613 34.4347 44.8986 35.416L42.4026 38.872C41.208 37.9547 40.0346 37.2827 38.8826 36.856C37.7306 36.408 36.5466 36.184 35.3306 36.184C34.0933 36.184 33.1013 36.4187 32.3546 36.888C31.608 37.336 31.2346 37.944 31.2346 38.712C31.2346 39.3947 31.48 39.928 31.9706 40.312C32.4613 40.696 33.2826 40.9733 34.4346 41.144L38.6586 41.848C40.8773 42.2107 42.5413 42.9253 43.6506 43.992C44.7813 45.0373 45.3466 46.424 45.3466 48.152C45.3466 50.328 44.4826 52.0667 42.7546 53.368C41.048 54.6693 38.7653 55.32 35.9066 55.32C34.1146 55.32 32.344 54.9787 30.5946 54.296C28.8666 53.6133 27.3306 52.664 25.9866 51.448Z" fill="white"/>
<defs>
<linearGradient id="paint0_linear_1_2531" x1="16" y1="44" x2="56" y2="44" gradientUnits="userSpaceOnUse">
<stop stop-color="#2979FF"/>
<stop offset="1" stop-color="#4C589E"/>
</linearGradient>
</defs>
</svg>
